<svg width="59" height="59" viewBox="0 0 59 59" fill="none" xmlns="http://www.w3.org/2000/svg">
<path d="M40.5499 26.7344C39.3624 26.7344 38.4453 27.076 37.7939 27.7478C37.1376 28.4178 36.7296 29.3295 36.5627 30.4829H44.5228C44.436 29.2553 44.0263 28.3257 43.288 27.6909C42.5558 27.0544 41.6411 26.7344 40.5499 26.7344Z" fill="white" fill-opacity="0.53"/>
<path d="M23.1288 31.3934C22.5444 31.123 21.7194 30.9854 20.6623 30.9752H15.368V37.5486H20.5804C21.6512 37.5486 22.4797 37.4086 23.078 37.1161C24.1566 36.5783 24.6974 35.5553 24.6974 34.0358C24.6974 32.7544 24.1739 31.8684 23.1288 31.3934Z" fill="white" fill-opacity="0.53"/>
<path d="M23.1946 26.2803C23.8617 25.8735 24.1949 25.1503 24.1949 24.1117C24.1949 22.9643 23.754 22.2028 22.8698 21.8367C22.11 21.5818 21.1379 21.4508 19.9582 21.4508H15.3674V26.8917H20.5863C21.6596 26.8917 22.527 26.6877 23.1946 26.2803Z" fill="white" fill-opacity="0.53"/>
<path d="M29.5 0C13.2078 0 0 13.2078 0 29.5C0 45.7922 13.2078 59 29.5 59C45.7922 59 59 45.7922 59 29.5C59 13.2078 45.7922 0 29.5 0ZM35.5457 18.191H45.4788V20.6581H45.4782H35.5457V18.191ZM28.7989 38.3233C28.3317 39.0908 27.7514 39.7387 27.0538 40.2604C26.2684 40.864 25.3387 41.2774 24.2703 41.4987C23.1982 41.7201 22.0377 41.832 20.788 41.832H9.67999V17.1669H21.592C24.5945 17.2159 26.723 18.0857 27.9799 19.7943C28.7343 20.8418 29.1076 22.0993 29.1076 23.5608C29.1076 25.0689 28.7295 26.2755 27.9679 27.192C27.5444 27.7059 26.9186 28.1737 26.0901 28.5955C27.3452 29.0549 28.2976 29.7782 28.9335 30.7742C29.5742 31.7667 29.8948 32.9721 29.8948 34.387C29.8942 35.8514 29.5335 37.1639 28.7989 38.3233ZM49.3152 33.5309H36.4515C36.5226 35.3064 37.1352 36.5484 38.2976 37.2585C38.9987 37.7041 39.8488 37.9219 40.8443 37.9219C41.8936 37.9219 42.749 37.6563 43.4077 37.1113C43.7666 36.8224 44.0831 36.4144 44.3565 35.8993H49.0711C48.9479 36.948 48.3802 38.0116 47.3596 39.0926C45.7791 40.8108 43.562 41.6722 40.715 41.6722C38.3628 41.6722 36.2905 40.946 34.491 39.4982C32.6981 38.0451 31.7972 35.6893 31.7972 32.4206C31.7972 29.3558 32.606 27.0096 34.2284 25.377C35.8568 23.7408 37.9584 22.9266 40.5493 22.9266C42.085 22.9266 43.4687 23.2012 44.7041 23.7528C45.9352 24.305 46.9522 25.1742 47.7538 26.3689C48.4789 27.4211 48.9455 28.6374 49.1627 30.0235C49.2829 30.8299 49.3374 32.0006 49.3152 33.5309Z" fill="white" fill-opacity="0.53"/>
</svg>
