<svg width="60" height="58" viewBox="0 0 60 58" fill="none" xmlns="http://www.w3.org/2000/svg">
<g clip-path="url(#clip0_14_32)">
<path fill-rule="evenodd" clip-rule="evenodd" d="M29.9982 0C13.4328 0 0 13.3126 0 29.7359C0 42.8719 8.595 54.0162 20.5176 57.9489C22.0176 58.2218 22.5654 57.3036 22.5654 56.5157C22.5654 55.8098 22.5396 53.9401 22.5246 51.4585C14.1798 53.2556 12.4188 47.4729 12.4188 47.4729C11.0544 44.038 9.0882 43.1234 9.0882 43.1234C6.3642 41.2787 9.294 41.3162 9.294 41.3162C12.3048 41.5267 13.8894 44.3806 13.8894 44.3806C16.5654 48.9245 20.9106 47.6121 22.62 46.8515C22.8924 44.9301 23.6676 43.62 24.5244 42.8766C17.8626 42.1261 10.8594 39.5755 10.8594 28.1808C10.8594 24.935 12.0282 22.2804 13.9476 20.202C13.6392 19.4497 12.6096 16.4263 14.2416 12.3331C14.2416 12.3331 16.7604 11.5339 22.4916 15.3815C24.8844 14.722 27.4506 14.3919 30.0024 14.3806C32.55 14.3919 35.1168 14.722 37.5132 15.3815C43.2408 11.5339 45.7548 12.3331 45.7548 12.3331C47.3916 16.4269 46.362 19.4497 46.0536 20.202C47.9766 22.2804 49.137 24.9345 49.137 28.1808C49.137 39.6035 42.123 42.1172 35.4396 42.8534C36.5166 43.7716 37.4766 45.586 37.4766 48.3596C37.4766 52.3345 37.44 55.5416 37.44 56.5163C37.44 57.3114 37.9806 58.2367 39.5028 57.9459C51.4122 54.0055 60 42.8683 60 29.7359C60 13.3126 46.5666 0 29.9982 0Z" fill="white" fill-opacity="0.53"/>
</g>
<defs>
<clipPath id="clip0_14_32">
<rect width="60" height="58" fill="white"/>
</clipPath>
</defs>
</svg>
