<svg width="59" height="59" viewBox="0 0 59 59" fill="none" xmlns="http://www.w3.org/2000/svg">
<path d="M37.1867 14.6387H21.6667C17.783 14.6387 14.6232 17.7986 14.6232 21.6823V37.3446C14.6232 41.2283 17.783 44.3882 21.6667 44.3882H37.1867C41.0704 44.3882 44.2303 41.2283 44.2303 37.3446V21.6823C44.2303 17.7986 41.0704 14.6387 37.1867 14.6387ZM29.4563 38.8916C24.1919 38.8916 19.9091 34.6544 19.9091 29.4462C19.9091 24.238 24.1925 20.0007 29.4563 20.0007C34.7202 20.0007 39.0035 24.238 39.0035 29.4462C39.0035 34.6544 34.7208 38.8916 29.4563 38.8916ZM39.1734 21.8606C37.9327 21.8606 36.927 20.855 36.927 19.6142C36.927 18.3735 37.9327 17.3679 39.1734 17.3679C40.4141 17.3679 41.4198 18.3735 41.4198 19.6142C41.4198 20.855 40.4141 21.8606 39.1734 21.8606Z" fill="white" fill-opacity="0.53"/>
<path d="M29.5 0C13.2078 0 0 13.2078 0 29.5C0 45.7922 13.2078 59 29.5 59C45.7922 59 59 45.7922 59 29.5C59 13.2078 45.7922 0 29.5 0ZM47.7144 37.3446C47.7144 43.1499 42.9913 47.8723 37.1867 47.8723H21.6668C15.8615 47.8723 11.1391 43.1493 11.1391 37.3446V21.6823C11.1391 15.8771 15.8621 11.1546 21.6668 11.1546H37.1867C42.9919 11.1546 47.7144 15.8777 47.7144 21.6823V37.3446Z" fill="white" fill-opacity="0.53"/>
<path d="M29.4563 23.4782C26.1092 23.4782 23.3867 26.1553 23.3867 29.4462C23.3867 32.737 26.1092 35.4141 29.4563 35.4141C32.8034 35.4141 35.526 32.737 35.526 29.4462C35.526 26.1553 32.8034 23.4782 29.4563 23.4782Z" fill="white" fill-opacity="0.53"/>
</svg>
