<svg width="59" height="59" viewBox="0 0 59 59" fill="none" xmlns="http://www.w3.org/2000/svg">
<path d="M32.6545 24.951V24.8817C32.6401 24.9044 32.6216 24.9289 32.6078 24.951H32.6545Z" fill="white" fill-opacity="0.53"/>
<path d="M29.5 0C13.2078 0 0 13.2078 0 29.5C0 45.7922 13.2078 59 29.5 59C45.7922 59 59 45.7922 59 29.5C59 13.2078 45.7922 0 29.5 0ZM21.601 43.2545H14.485V21.8474H21.601V43.2545ZM18.0433 18.9263H17.9954C15.6085 18.9263 14.0614 17.2805 14.0614 15.2256C14.0614 13.1252 15.6545 11.5273 18.0899 11.5273C20.5253 11.5273 22.0227 13.1246 22.0694 15.2256C22.0694 17.2811 20.5259 18.9263 18.0433 18.9263ZM47.2645 43.2545H40.1479V31.8014C40.1479 28.9245 39.1184 26.9611 36.543 26.9611C34.5766 26.9611 33.4065 28.2844 32.8914 29.5646C32.7035 30.0223 32.6551 30.6594 32.6551 31.2995V43.2545H25.5361C25.5361 43.2545 25.6318 23.8569 25.5361 21.8474H32.6539V24.8817C33.5997 23.425 35.2885 21.3443 39.0687 21.3443C43.7523 21.3443 47.2633 24.4037 47.2633 30.9794V43.2545H47.2645Z" fill="white" fill-opacity="0.53"/>
</svg>
