<svg width="59" height="59" viewBox="0 0 59 59" fill="none" xmlns="http://www.w3.org/2000/svg">
<path d="M29.5 0C13.2078 0 0 13.2078 0 29.5C0 45.7922 13.2078 59 29.5 59C45.7922 59 59 45.7922 59 29.5C59 13.2078 45.7922 0 29.5 0ZM46.0943 13.7109L39.4893 44.7304C39.3654 45.3394 38.6715 45.6379 38.1444 45.3077L27.9871 38.571L22.6443 43.5429C22.1687 43.9497 21.4322 43.7517 21.2253 43.1606L17.7465 32.1891L8.40516 28.358C7.68847 28.0313 7.69864 26.8899 8.43327 26.6046L44.8991 12.7035C45.5559 12.4486 46.2343 13.0205 46.0943 13.7109Z" fill="white" fill-opacity="0.53"/>
<path d="M22.3475 39.9068L22.941 34.2667L39.4151 18.1635L19.5275 31.2241L22.3475 39.9068Z" fill="white" fill-opacity="0.53"/>
</svg>
